<?xml version="1.0" encoding="UTF-8" standalone="no"?>
<!DOCTYPE svg PUBLIC "-//W3C//DTD SVG 1.1//EN"
 "http://www.w3.org/Graphics/SVG/1.1/DTD/svg11.dtd">
<!-- Generated by graphviz version 2.40.1 (20161225.0304)
 -->
<!-- Title: dependencies Pages: 1 -->
<svg width="1665pt" height="284pt"
 viewBox="0.00 0.00 1665.00 284.00" xmlns="http://www.w3.org/2000/svg" xmlns:xlink="http://www.w3.org/1999/xlink">
<g id="graph0" class="graph" transform="scale(1 1) rotate(0) translate(4 280)">
<title>dependencies</title>
<polygon fill="#ffffff" stroke="transparent" points="-4,4 -4,-280 1661,-280 1661,4 -4,4"/>
<text text-anchor="start" x="807.5091" y="-42.4" font-family="sans-serif" font-weight="bold" font-size="14.00" fill="#000000">Legend</text>
<polygon fill="#ffffb3" stroke="transparent" points="594.5,-10 594.5,-30 614.5,-30 614.5,-10 594.5,-10"/>
<text text-anchor="start" x="618.129" y="-15.4" font-family="sans-serif" font-size="14.00" fill="#000000"> &#160;Declarations</text>
<polygon fill="#8dd3c7" stroke="transparent" points="707.5,-10 707.5,-30 727.5,-30 727.5,-10 707.5,-10"/>
<text text-anchor="start" x="731.2251" y="-15.4" font-family="sans-serif" font-size="14.00" fill="#000000"> &#160;Module</text>
<polygon fill="#80b1d3" stroke="transparent" points="793.5,-10 793.5,-30 813.5,-30 813.5,-10 793.5,-10"/>
<text text-anchor="start" x="817.2812" y="-15.4" font-family="sans-serif" font-size="14.00" fill="#000000"> &#160;Bootstrap</text>
<polygon fill="#fdb462" stroke="transparent" points="890.5,-10 890.5,-30 910.5,-30 910.5,-10 890.5,-10"/>
<text text-anchor="start" x="914.1732" y="-15.4" font-family="sans-serif" font-size="14.00" fill="#000000"> &#160;Providers</text>
<polygon fill="#fb8072" stroke="transparent" points="986.5,-10 986.5,-30 1006.5,-30 1006.5,-10 986.5,-10"/>
<text text-anchor="start" x="1010.2258" y="-15.4" font-family="sans-serif" font-size="14.00" fill="#000000"> &#160;Exports</text>
<g id="clust1" class="cluster">
<title>cluster_AppModule</title>
<polygon fill="none" stroke="#000000" stroke-dasharray="1,5" points="8,-70 8,-268 1649,-268 1649,-70 8,-70"/>
</g>
<g id="clust2" class="cluster">
<title>cluster_AppModule_declarations</title>
<polygon fill="none" stroke="#000000" points="463,-78 463,-130 1641,-130 1641,-78 463,-78"/>
</g>
<g id="clust10" class="cluster">
<title>cluster_AppModule_imports</title>
<polygon fill="none" stroke="#000000" points="186,-78 186,-130 455,-130 455,-78 186,-78"/>
</g>
<g id="clust12" class="cluster">
<title>cluster_AppModule_bootstrap</title>
<polygon fill="none" stroke="#000000" points="770,-208 770,-260 894,-260 894,-208 770,-208"/>
</g>
<g id="clust13" class="cluster">
<title>cluster_AppModule_providers</title>
<polygon fill="none" stroke="#000000" points="16,-78 16,-130 178,-130 178,-78 16,-78"/>
</g>
<!-- AppComponent -->
<g id="node1" class="node">
<title>AppComponent</title>
<polygon fill="#ffffb3" stroke="#000000" points="1632.9399,-122 1527.0601,-122 1527.0601,-86 1632.9399,-86 1632.9399,-122"/>
<text text-anchor="middle" x="1580" y="-99.8" font-family="Times,serif" font-size="14.00" fill="#000000">AppComponent</text>
</g>
<!-- AppModule -->
<g id="node8" class="node">
<title>AppModule</title>
<polygon fill="#8dd3c7" stroke="#000000" points="873.6571,-187 870.6571,-191 849.6571,-191 846.6571,-187 790.3429,-187 790.3429,-151 873.6571,-151 873.6571,-187"/>
<text text-anchor="middle" x="832" y="-164.8" font-family="Times,serif" font-size="14.00" fill="#000000">AppModule</text>
</g>
<!-- AppComponent&#45;&gt;AppModule -->
<g id="edge1" class="edge">
<title>AppComponent&#45;&gt;AppModule</title>
<path fill="none" stroke="#000000" d="M1580,-122.0109C1580,-144.4852 1580,-180 1580,-180 1580,-180 883.8185,-180 883.8185,-180"/>
<polygon fill="#000000" stroke="#000000" points="883.8186,-176.5001 873.8185,-180 883.8185,-183.5001 883.8186,-176.5001"/>
</g>
<!-- MyNavComponent -->
<g id="node2" class="node">
<title>MyNavComponent</title>
<polygon fill="#ffffb3" stroke="#000000" points="1509.0982,-122 1384.9018,-122 1384.9018,-86 1509.0982,-86 1509.0982,-122"/>
<text text-anchor="middle" x="1447" y="-99.8" font-family="Times,serif" font-size="14.00" fill="#000000">MyNavComponent</text>
</g>
<!-- MyNavComponent&#45;&gt;AppModule -->
<g id="edge2" class="edge">
<title>MyNavComponent&#45;&gt;AppModule</title>
<path fill="none" stroke="#000000" d="M1447,-122.1289C1447,-142.5724 1447,-173 1447,-173 1447,-173 883.7879,-173 883.7879,-173"/>
<polygon fill="#000000" stroke="#000000" points="883.788,-169.5001 873.7879,-173 883.7879,-176.5001 883.788,-169.5001"/>
</g>
<!-- PokemonCardComponent -->
<g id="node3" class="node">
<title>PokemonCardComponent</title>
<polygon fill="#ffffb3" stroke="#000000" points="1366.9326,-122 1205.0674,-122 1205.0674,-86 1366.9326,-86 1366.9326,-122"/>
<text text-anchor="middle" x="1286" y="-99.8" font-family="Times,serif" font-size="14.00" fill="#000000">PokemonCardComponent</text>
</g>
<!-- PokemonCardComponent&#45;&gt;AppModule -->
<g id="edge3" class="edge">
<title>PokemonCardComponent&#45;&gt;AppModule</title>
<path fill="none" stroke="#000000" d="M1286,-122.2667C1286,-140.5552 1286,-166 1286,-166 1286,-166 883.8975,-166 883.8975,-166"/>
<polygon fill="#000000" stroke="#000000" points="883.8975,-162.5001 873.8975,-166 883.8974,-169.5001 883.8975,-162.5001"/>
</g>
<!-- PokemonInitialComponent -->
<g id="node4" class="node">
<title>PokemonInitialComponent</title>
<polygon fill="#ffffb3" stroke="#000000" points="1186.6581,-122 1019.3419,-122 1019.3419,-86 1186.6581,-86 1186.6581,-122"/>
<text text-anchor="middle" x="1103" y="-99.8" font-family="Times,serif" font-size="14.00" fill="#000000">PokemonInitialComponent</text>
</g>
<!-- PokemonInitialComponent&#45;&gt;AppModule -->
<g id="edge4" class="edge">
<title>PokemonInitialComponent&#45;&gt;AppModule</title>
<path fill="none" stroke="#000000" d="M1103,-122.0091C1103,-138.0494 1103,-159 1103,-159 1103,-159 883.7498,-159 883.7498,-159"/>
<polygon fill="#000000" stroke="#000000" points="883.7499,-155.5001 873.7498,-159 883.7498,-162.5001 883.7499,-155.5001"/>
</g>
<!-- PokemonListComponent -->
<g id="node5" class="node">
<title>PokemonListComponent</title>
<polygon fill="#ffffb3" stroke="#000000" points="1000.9986,-122 845.0014,-122 845.0014,-86 1000.9986,-86 1000.9986,-122"/>
<text text-anchor="middle" x="923" y="-99.8" font-family="Times,serif" font-size="14.00" fill="#000000">PokemonListComponent</text>
</g>
<!-- PokemonListComponent&#45;&gt;AppModule -->
<g id="edge5" class="edge">
<title>PokemonListComponent&#45;&gt;AppModule</title>
<path fill="none" stroke="#000000" d="M859.4145,-122.1061C859.4145,-122.1061 859.4145,-140.991 859.4145,-140.991"/>
<polygon fill="#000000" stroke="#000000" points="855.9145,-140.9909 859.4145,-150.991 862.9145,-140.991 855.9145,-140.9909"/>
</g>
<!-- PokemonSearchComponent -->
<g id="node6" class="node">
<title>PokemonSearchComponent</title>
<polygon fill="#ffffb3" stroke="#000000" points="827.3075,-122 654.6925,-122 654.6925,-86 827.3075,-86 827.3075,-122"/>
<text text-anchor="middle" x="741" y="-99.8" font-family="Times,serif" font-size="14.00" fill="#000000">PokemonSearchComponent</text>
</g>
<!-- PokemonSearchComponent&#45;&gt;AppModule -->
<g id="edge6" class="edge">
<title>PokemonSearchComponent&#45;&gt;AppModule</title>
<path fill="none" stroke="#000000" d="M808.6627,-122.1061C808.6627,-122.1061 808.6627,-140.991 808.6627,-140.991"/>
<polygon fill="#000000" stroke="#000000" points="805.1628,-140.9909 808.6627,-150.991 812.1628,-140.991 805.1628,-140.9909"/>
</g>
<!-- PokemonTipesComponent -->
<g id="node7" class="node">
<title>PokemonTipesComponent</title>
<polygon fill="#ffffb3" stroke="#000000" points="636.8229,-122 471.1771,-122 471.1771,-86 636.8229,-86 636.8229,-122"/>
<text text-anchor="middle" x="554" y="-99.8" font-family="Times,serif" font-size="14.00" fill="#000000">PokemonTipesComponent</text>
</g>
<!-- PokemonTipesComponent&#45;&gt;AppModule -->
<g id="edge7" class="edge">
<title>PokemonTipesComponent&#45;&gt;AppModule</title>
<path fill="none" stroke="#000000" d="M554,-122.0091C554,-138.0494 554,-159 554,-159 554,-159 780.0796,-159 780.0796,-159"/>
<polygon fill="#000000" stroke="#000000" points="780.0796,-162.5001 790.0796,-159 780.0796,-155.5001 780.0796,-162.5001"/>
</g>
<!-- AppComponent  -->
<g id="node11" class="node">
<title>AppComponent </title>
<polygon fill="#80b1d3" stroke="#000000" points="886.439,-252 777.561,-252 777.561,-216 886.439,-216 886.439,-252"/>
<text text-anchor="middle" x="832" y="-229.8" font-family="Times,serif" font-size="14.00" fill="#000000">AppComponent </text>
</g>
<!-- AppModule&#45;&gt;AppComponent  -->
<g id="edge10" class="edge">
<title>AppModule&#45;&gt;AppComponent </title>
<path fill="none" stroke="#000000" stroke-dasharray="1,5" d="M832,-187.1061C832,-187.1061 832,-205.991 832,-205.991"/>
<polygon fill="#000000" stroke="#000000" points="828.5001,-205.9909 832,-215.991 835.5001,-205.991 828.5001,-205.9909"/>
</g>
<!-- AppRoutingModule -->
<g id="node9" class="node">
<title>AppRoutingModule</title>
<polygon fill="#8dd3c7" stroke="#000000" points="447.2744,-122 444.2744,-126 423.2744,-126 420.2744,-122 318.7256,-122 318.7256,-86 447.2744,-86 447.2744,-122"/>
<text text-anchor="middle" x="383" y="-99.8" font-family="Times,serif" font-size="14.00" fill="#000000">AppRoutingModule</text>
</g>
<!-- AppRoutingModule&#45;&gt;AppModule -->
<g id="edge8" class="edge">
<title>AppRoutingModule&#45;&gt;AppModule</title>
<path fill="none" stroke="#000000" d="M383,-122.2667C383,-140.5552 383,-166 383,-166 383,-166 780.1624,-166 780.1624,-166"/>
<polygon fill="#000000" stroke="#000000" points="780.1624,-169.5001 790.1624,-166 780.1623,-162.5001 780.1624,-169.5001"/>
</g>
<!-- MaterialModule -->
<g id="node10" class="node">
<title>MaterialModule</title>
<polygon fill="#8dd3c7" stroke="#000000" points="300.4706,-122 297.4706,-126 276.4706,-126 273.4706,-122 193.5294,-122 193.5294,-86 300.4706,-86 300.4706,-122"/>
<text text-anchor="middle" x="247" y="-99.8" font-family="Times,serif" font-size="14.00" fill="#000000">MaterialModule</text>
</g>
<!-- MaterialModule&#45;&gt;AppModule -->
<g id="edge9" class="edge">
<title>MaterialModule&#45;&gt;AppModule</title>
<path fill="none" stroke="#000000" d="M247,-122.1289C247,-142.5724 247,-173 247,-173 247,-173 779.9282,-173 779.9282,-173"/>
<polygon fill="#000000" stroke="#000000" points="779.9283,-176.5001 789.9282,-173 779.9282,-169.5001 779.9283,-176.5001"/>
</g>
<!-- DataApiService -->
<g id="node12" class="node">
<title>DataApiService</title>
<ellipse fill="#fdb462" stroke="#000000" cx="97" cy="-104" rx="72.9082" ry="18"/>
<text text-anchor="middle" x="97" y="-99.8" font-family="Times,serif" font-size="14.00" fill="#000000">DataApiService</text>
</g>
<!-- DataApiService&#45;&gt;AppModule -->
<g id="edge11" class="edge">
<title>DataApiService&#45;&gt;AppModule</title>
<path fill="none" stroke="#000000" d="M97,-122.0109C97,-144.4852 97,-180 97,-180 97,-180 780.1107,-180 780.1107,-180"/>
<polygon fill="#000000" stroke="#000000" points="780.1107,-183.5001 790.1107,-180 780.1106,-176.5001 780.1107,-183.5001"/>
</g>
</g>
</svg>
